<?xml version="1.0" encoding="utf-8"?>
<!-- Generator: Adobe Illustrator 18.1.1, SVG Export Plug-In . SVG Version: 6.00 Build 0)  -->
<svg version="1.1" id="Layer_1" xmlns="http://www.w3.org/2000/svg" xmlns:xlink="http://www.w3.org/1999/xlink" x="0px" y="0px"
	 width="122px" height="122px" viewBox="-188 190 122 122" enable-background="new -188 190 122 122" xml:space="preserve">
<circle fill="#2E8FA2" cx="-127" cy="251" r="61"/>
<g>
	<g>
		<path fill="#FFFFFF" d="M-127,282.5c-17.3,0-31.5-14.1-31.5-31.5s14.1-31.5,31.5-31.5s31.5,14.1,31.5,31.5S-109.7,282.5-127,282.5
			z M-127,221.9c-16.1,0-29.1,13.1-29.1,29.1c0,16.1,13.1,29.1,29.1,29.1s29.1-13.1,29.1-29.1C-97.9,234.9-110.9,221.9-127,221.9z"
			/>
	</g>
	<g>
		<path fill="#FFFFFF" d="M-147.2,244.2c-5.4,0-8.8-0.7-9-0.8l0.5-2.3c0.3,0.1,26.9,5.4,46.5-14.8l1.7,1.6
			c-10.7,11.1-23.4,14.7-32.1,15.8C-142.4,244-145,244.2-147.2,244.2z"/>
	</g>
	<g>
		<path fill="#FFFFFF" d="M-143.9,276.4l-1.7-1.6c0.7-0.7,17.4-17.5,47.3-14.8l-0.2,2.3C-127.3,259.6-143.7,276.2-143.9,276.4z"/>
	</g>
	<g>
		
			<rect x="-127.8" y="221.8" transform="matrix(0.2983 0.9545 -0.9545 0.2983 151.6626 297.7603)" fill="#FFFFFF" width="2.3" height="60.6"/>
	</g>
	<g>
		
			<rect x="-157.4" y="249.9" transform="matrix(0.2892 0.9573 -0.9573 0.2892 149.9452 300.1385)" fill="#FFFFFF" width="60.6" height="2.3"/>
	</g>
	<g>
		<path fill="#FFFFFF" d="M-113,279.1l-1.8-1.5c7.1-8.4,6.2-20.8,4.1-29.7c-0.1-0.3-0.1-0.6-0.2-0.9c-5.7-22.5-23.2-23.7-23.9-23.8
			l0.1-2.3c0.2,0,5.1,0.3,10.8,3.6c5.2,3,12.1,9.3,15.3,21.9l0.3,1.1l-0.1,0C-106.2,256.9-105.3,269.9-113,279.1z"/>
	</g>
	<g>
		<path fill="#FFFFFF" d="M-127.6,282.3c-5.9-3.2-10.5-9.5-13.4-14.2c-2.3-3.8-4.6-8.7-4.9-10.2c-2.1-7.9-3.5-19.2,1.8-28.2
			c3.3-5.5,7.5-7.5,7.7-7.6l1,2.1c0,0-3.8,1.9-6.7,6.8c-3.8,6.6-4.4,15.7-1.5,26.4l0.2,0.7c1.1,3,7.6,17.1,17,22.2L-127.6,282.3z"/>
	</g>
</g>
</svg>
