<?xml version="1.0" encoding="utf-8"?>
<!-- Generator: Adobe Illustrator 18.1.1, SVG Export Plug-In . SVG Version: 6.00 Build 0)  -->
<svg version="1.1" id="Layer_1" xmlns="http://www.w3.org/2000/svg" xmlns:xlink="http://www.w3.org/1999/xlink" x="0px" y="0px"
	 width="122px" height="122px" viewBox="-188 190 122 122" enable-background="new -188 190 122 122" xml:space="preserve">
<circle fill="#F94C3D" cx="-127" cy="251" r="61"/>
<g>
	<g>
		<path fill="#FFFFFF" d="M-151.6,281.6c-1.3,0-2.7,0-4.1-0.1l-1.3,0l-0.2-1.3c-0.1-1.1-3-26.5,12.5-44
			c10.1-11.5,25.8-16.7,46.4-15.6l1.4,0.1l0,1.4c0,0.5,0,1.1,0.1,1.7c0.3,9.6,1,29.7-12.2,43.4
			C-118.2,276.7-132.5,281.6-151.6,281.6z M-154.2,278.4c0.9,0,1.7,0,2.6,0c18.2,0,31.8-4.5,40.4-13.4
			c12.3-12.8,11.7-31.3,11.4-41.2c0-0.1,0-0.2,0-0.2c-1.3-0.1-2.6-0.1-3.8-0.1c-17,0-30.1,4.9-38.7,14.7
			C-154.9,252.5-154.5,273-154.2,278.4z"/>
	</g>
	<g>
		<path fill="#FFFFFF" d="M-136.2,278.8c-2.8-12.5-18.3-18.4-18.5-18.5l1.1-2.9c0.2,0.1,4.3,1.6,8.9,4.9c6.2,4.4,10.1,9.9,11.5,15.8
			L-136.2,278.8z"/>
	</g>
	<g>
		<path fill="#FFFFFF" d="M-99.7,244.4c-15.1-5.9-20.6-19.7-20.9-20.3l2.9-1.1l-1.4,0.6l1.4-0.6c0.1,0.1,5.3,13.1,19.1,18.5
			L-99.7,244.4z"/>
	</g>
	<g>
		
			<rect x="-128.1" y="234" transform="matrix(0.713 0.7012 -0.7012 0.713 139.9817 160.853)" fill="#FFFFFF" width="3.1" height="34.9"/>
	</g>
	<g>
		
			<rect x="-139.7" y="255.9" transform="matrix(0.7232 0.6906 -0.6906 0.7232 141.0369 162.9333)" fill="#FFFFFF" width="13.9" height="3.1"/>
	</g>
	<g>
		
			<rect x="-136.9" y="249.4" transform="matrix(0.6943 0.7197 -0.7197 0.6943 141.8749 167.8528)" fill="#FFFFFF" width="20.4" height="3.1"/>
	</g>
	<g>
		
			<rect x="-127.8" y="243.5" transform="matrix(0.6997 0.7144 -0.7144 0.6997 138.8359 159.8654)" fill="#FFFFFF" width="14.1" height="3.1"/>
	</g>
</g>
</svg>
