<?xml version="1.0" encoding="utf-8"?>
<!-- Generator: Adobe Illustrator 18.1.1, SVG Export Plug-In . SVG Version: 6.00 Build 0)  -->
<svg version="1.1" id="Layer_1" xmlns="http://www.w3.org/2000/svg" xmlns:xlink="http://www.w3.org/1999/xlink" x="0px" y="0px"
	 viewBox="0 0 127 127" enable-background="new 0 0 127 127" xml:space="preserve">
<circle fill="#FFFFFF" cx="63.5" cy="63.5" r="63.5"/>
<g>
	<path fill-rule="evenodd" clip-rule="evenodd" fill="#BDBDBD" d="M95.552475,40.8409805
		c-0.7910538-0.8065147-2.1041565-0.8065147-2.8899994,0L52.6796875,80.7462997L33.5360641,61.6440125
		c-0.811718-0.8065109-2.1248245-0.8065109-2.931179,0c-0.8065128,0.8065109-0.8065128,2.1196175,0,2.9261322l20.518734,20.4773941
		c0,0.020668,0.0205078,0.020668,0.0413322,0.020668c0.0205116,0.020668,0.0205116,0.0413361,0.0205116,0.0413361
		c0.8065109,0.8065109,2.0991096,0.8065109,2.9054642,0L95.552475,43.7308235
		C96.3588257,42.9243126,96.3588257,41.6318741,95.552475,40.8409805L95.552475,40.8409805z"/>
	<path fill-rule="evenodd" clip-rule="evenodd" d="M95.552475,40.8409805"/>
	<rect x="30" y="40.2360954" fill="none" width="67" height="46.5278091"/>
</g>
</svg>
