<?xml version="1.0" encoding="utf-8"?>
<!-- Generator: Adobe Illustrator 18.1.1, SVG Export Plug-In . SVG Version: 6.00 Build 0)  -->
<svg version="1.1" id="Layer_1" xmlns="http://www.w3.org/2000/svg" xmlns:xlink="http://www.w3.org/1999/xlink" x="0px" y="0px"
	 width="122px" height="122px" viewBox="0 0 122 122" enable-background="new 0 0 122 122" xml:space="preserve">
<circle fill="#95C11F" cx="61" cy="61" r="61"/>
<g>
	<g>
		<polygon fill="#FFFFFF" points="53.3254967,80.1841354 50.0702782,80.1841354 50.0702782,42.9740524 89.0519257,29.3218632 
			89.0519257,68.4951248 85.7967072,68.4951248 85.7967072,33.9108963 53.3254967,45.2832642 		"/>
	</g>
	<path fill="#FFFFFF" d="M43.2187195,92.6781387c-5.7087059,0-10.3529053-4.6445312-10.3529053-10.3538895
		c0-5.7087097,4.6441994-10.3532333,10.3529053-10.3532333c5.709034,0,10.3535614,4.6445236,10.3535614,10.3532333
		C53.5722809,88.0336075,48.9277534,92.6781387,43.2187195,92.6781387z M43.2187195,75.2262268
		c-3.9136353,0-7.0976906,3.1840591-7.0976906,7.0980225s3.1840553,7.098671,7.0976906,7.098671
		c3.9139633,0,7.0983467-3.1847076,7.0983467-7.098671S47.1326828,75.2262268,43.2187195,75.2262268z"/>
	<path fill="#FFFFFF" d="M78.7802963,80.1655273c-5.7087021,0-10.3532333-4.6445236-10.3532333-10.3532333
		c0-5.7090302,4.6445312-10.3535614,10.3532333-10.3535614c5.7093582,0,10.3538895,4.6445312,10.3538895,10.3535614
		C89.1341858,75.5210037,84.4896545,80.1655273,78.7802963,80.1655273z M78.7802963,62.7139511
		c-3.9139633,0-7.0980148,3.1843796-7.0980148,7.0983429s3.1840515,7.0980148,7.0980148,7.0980148
		s7.098671-3.1840515,7.098671-7.0980148S82.6942596,62.7139511,78.7802963,62.7139511z"/>
</g>
</svg>
