<?xml version="1.0" encoding="utf-8"?>
<!-- Generator: Adobe Illustrator 18.1.1, SVG Export Plug-In . SVG Version: 6.00 Build 0)  -->
<svg version="1.1" id="Layer_1" xmlns="http://www.w3.org/2000/svg" xmlns:xlink="http://www.w3.org/1999/xlink" x="0px" y="0px"
	 width="100.6389389px" height="32.7925797px" viewBox="0 0 100.6389389 32.7925797"
	 enable-background="new 0 0 100.6389389 32.7925797" xml:space="preserve">
<path fill="#FFFFFF" d="M10.8272743,8.663722c0,0.5365696-0.0196552,1.003726-0.0566559,1.4003391
	s-0.1110201,0.7365875-0.2231855,1.0187588c-0.1121664,0.2833004-0.2694139,0.5157137-0.4729443,0.6984406
	c-0.2035112,0.1826916-0.4683199,0.3249416-0.7944088,0.427844c-0.3272524,0.1029034-0.7238836,0.1746101-1.19104,0.2139225
	c-0.4671736,0.0404406-1.0210524,0.060132-1.6628361,0.060132c-0.5504208,0-1.040709-0.0127039-1.4697175-0.0381823
	C4.5263305,12.4195681,4.148191,12.3628941,3.8221028,12.27386c-0.3272529-0.0890341-0.6036189-0.2174158-0.8302627-0.3850737
	c-0.2266438-0.1688232-0.4104996-0.3943195-0.5538788-0.6776199c-0.1433971-0.282136-0.2486289-0.6348143-0.3133843-1.0569067
	C2.0575101,9.731039,2.0251327,9.2256994,2.0251327,8.638279c0-0.582799,0.0323775-1.082315,0.0994444-1.499784
	c0.0647554-0.4162693,0.1699872-0.766654,0.3133843-1.04879c0.1433792-0.2821708,0.327235-0.507668,0.5538788-0.6764908
	c0.2266438-0.1688223,0.5030098-0.2971687,0.8302627-0.3850737C4.148191,4.9391418,4.5263305,4.8801384,4.9564862,4.8524013
	C5.3854947,4.8234644,5.875783,4.8096309,6.4262037,4.8096309c0.6417837,0,1.1956625,0.0196209,1.6628361,0.0589328
	c0.4671564,0.0405116,0.8637877,0.1144776,1.19104,0.2231679c0.3260889,0.1087255,0.5908976,0.2544336,0.7944088,0.4371252
	c0.2035303,0.1826911,0.3607779,0.4163046,0.4729443,0.7018986c0.1121655,0.2856293,0.1861849,0.6278977,0.2231855,1.0280046
	S10.8272743,8.1271524,10.8272743,8.663722 M12.1501369,11.1880522c0.2173977-0.6695385,0.3272524-1.5113583,0.3272524-2.5243301
	c0-1.014101-0.1098547-1.8570852-0.3272524-2.5301175c-0.2173805-0.6729617-0.5666008-1.209496-1.0488081-1.6107674
	c-0.4810419-0.4001074-1.105464-0.684572-1.8732824-0.8499365C8.460228,3.506407,7.525898,3.423125,6.4262037,3.423125
	c-0.7851634,0-1.4419627,0.0405118-1.9681044,0.1214294C3.930793,3.6255076,3.4994905,3.7261167,3.1641388,3.8475108
	C2.828805,3.9689405,2.5732417,4.1007447,2.3986316,4.2418303C2.2240214,4.3840451,2.0991337,4.5112619,2.0251327,4.6269045
	V3.7006731h-1.650115v13.3037863h1.650115v-4.5213003c0.0740011,0.1422148,0.1988888,0.2925463,0.3734989,0.4532881
	c0.1746101,0.1595764,0.4301734,0.3087435,0.7655072,0.4475002c0.3353517,0.1387558,0.7666543,0.2543983,1.2939606,0.3468904
	c0.5261416,0.0925283,1.182941,0.1387568,1.9681044,0.1387568c1.0996943,0,2.0340242-0.0820818,2.8018427-0.2451172
	s1.3922405-0.4417486,1.8732824-0.8383617C11.5835361,12.3906317,11.9327564,11.8575554,12.1501369,11.1880522
	 M15.7776194,7.9965124c0-0.5076327,0.0323772-0.9424286,0.0994444-1.3032236
	c0.0647554-0.3607597,0.1688232-0.6406021,0.3087444-0.8406553c0.1399212-0.1988893,0.3249416-0.3723345,0.553896-0.5192075
	c0.2301025-0.1468377,0.506485-0.2601862,0.8302631-0.3376455c0.3237762-0.0786591,0.7018986-0.128346,1.1343651-0.1514959
	c0.4324856-0.0231142,0.9239368-0.0346537,1.4743576-0.0346537c0.6868668,0,1.2742882,0.0462289,1.7622814,0.1375566
	c0.4868126,0.0936923,0.8846073,0.2636795,1.1944981,0.5111265c0.3087444,0.2486463,0.5354061,0.5654712,0.6787853,0.9493451
	c0.1433792,0.383945,0.215086,0.9135623,0.215086,1.5888534H15.7776194z M16.0007877,10.9336185
	c-0.1491671-0.4752378-0.2231684-1.0846443-0.2231684-1.8281841h9.764226l0.1376114-0.553896
	c0-0.5145493-0.0277557-1.0025616-0.0820999-1.4639301c-0.0543633-0.4625335-0.1538086-0.864934-0.300663-1.2083669
	c-0.1456909-0.3434329-0.3469086-0.6718326-0.6013069-0.9829054c-0.2555466-0.312202-0.5874214-0.5781755-0.9967747-0.7978849
	c-0.4104996-0.218545-0.9030991-0.3862383-1.4789639-0.5018454C21.6437855,3.4809637,20.9638538,3.423125,20.17869,3.423125
	c-1.1008415,0-2.0351887,0.0844114-2.8018417,0.2509403c-0.7689667,0.1676581-1.3934059,0.4625332-1.8744478,0.8834608
	c-0.4810429,0.4220567-0.8302631,0.9898572-1.0488081,1.7021308c-0.2173977,0.7134738-0.326088,1.6154613-0.326088,2.7070217
	c0,0.9528389,0.1086903,1.7437716,0.326088,2.3739986c0.218545,0.6290617,0.5677652,1.1309071,1.0488081,1.5067358
	c0.4810419,0.3758278,1.1054811,0.6394367,1.8744478,0.7920971c0.7666531,0.1537895,1.7010002,0.2300844,2.8018417,0.2300844
	c1.0314636,0,1.897562-0.0531454,2.5994778-0.1607065c0.7018986-0.1063957,1.2685184-0.2763834,1.6975269-0.5111256
	c0.4301548-0.2335434,0.737751-0.5399933,0.9239197-0.9181499c0.1861668-0.378087,0.2798424-0.8348684,0.2798424-1.3725672
	h-1.650116c0,0.3283997-0.0589848,0.5955029-0.1769218,0.8001785c-0.1167889,0.2058411-0.3214645,0.3654184-0.6140289,0.48106
	c-0.2925625,0.1144781-0.6868649,0.1931019-1.1817932,0.2335787c-0.4960766,0.041605-1.1216621,0.0612965-1.8779068,0.0612965
	c-0.8256397,0-1.5182915-0.0289364-2.0802708-0.0878696c-0.5619946-0.0590029-1.0141354-0.1988888-1.3587151-0.4185982
	C16.3962708,11.7569818,16.1499538,11.4100552,16.0007877,10.9336185 M36.4069138,6.9488516h1.374897
	c0-0.5723877-0.0531807-1.0765624-0.1595764-1.5159459c-0.105217-0.4382896-0.3087463-0.8071661-0.6093903-1.1043348
	c-0.3018074-0.297204-0.7215729-0.522701-1.2592697-0.6752908c-0.5388641-0.1538248-1.2384529-0.230155-2.0976181-0.230155
	c-0.750473,0-1.3772049,0.0635908-1.8779221,0.1908078c-0.5018444,0.1272168-0.9100323,0.2844648-1.2245636,0.4717791
	c-0.3156967,0.1885138-0.5504208,0.3897319-0.7053757,0.6071124c-0.154953,0.2162509-0.2613316,0.41394-0.3180065,0.5932083
	V3.7006731h-1.6500969v9.9781494h1.6500969v-6.176074c0-0.4035654,0.047411-0.7701478,0.1422329-1.0996766
	c0.0936737-0.3295999,0.2729073-0.6117001,0.5365524-0.848772c0.2636433-0.2370715,0.6278973-0.4197631,1.0915947-0.5504379
	c0.4648628-0.1295109,1.0661507-0.194231,1.805069-0.194231c0.7562447,0,1.3540764,0.0323601,1.792347,0.0994444
	c0.4382553,0.0658846,0.7689667,0.1815267,0.9921341,0.3457265c0.2243309,0.1653647,0.3654175,0.3850389,0.4266968,0.6591287
	C36.3768463,6.1879849,36.4069138,6.5325823,36.4069138,6.9488516 M40.5709305,6.8054724
	C40.5454865,6.6181231,40.53162,6.4261861,40.53162,6.2295909c0-0.334187,0.0751648-0.5977964,0.2243309-0.7886391
	c0.1491661-0.1896434,0.3954659-0.3318582,0.7388992-0.4243507c0.3434525-0.0913634,0.7967377-0.1491666,1.3575706-0.1723166
	c0.5619774-0.0231142,1.2557945-0.0346537,2.0802536-0.0346537c0.756279,0,1.3830109,0.0207853,1.8779373,0.0647202
	c0.4960594,0.0427704,0.8903809,0.1214294,1.181797,0.2336135c0.2925453,0.1121483,0.4972229,0.2671022,0.6151581,0.4636974
	c0.116806,0.1965599,0.1757736,0.4497943,0.1757736,0.7620316h1.650116c0-0.5018806-0.0832481-0.9355121-0.2486115-1.2997656
	c-0.1665306-0.3630886-0.4567833-0.664916-0.8730507-0.9042459c-0.4151421-0.2393656-0.9771194-0.4174693-1.684803-0.5330763
	c-0.7076874-0.1156421-1.6050186-0.1734807-2.6943169-0.1734807c-1.099678,0-2.034008,0.0497575-2.8018265,0.1480374
	s-1.3922424,0.2578568-1.8732834,0.4798954c-0.4822083,0.2231679-0.8314095,0.5110912-1.0488091,0.8660636
	c-0.2185593,0.3550076-0.3272514,0.7932973-0.3272514,1.3124695c0,0.3816156,0.0346909,0.7354584,0.1029205,1.0615644
	c0.0693779,0.3260708,0.1861687,0.6001253,0.3526802,0.8221641c0.1665115,0.2231674,0.3908424,0.4000711,0.6753082,0.5330753
	c0.2833176,0.1329699,0.6383057,0.2358723,1.0650024,0.30758c0.4267006,0.0717068,0.9354973,0.120265,1.5263748,0.1433792
	c0.5897522,0.0219851,1.2743034,0.0335598,2.0536995,0.0335598c0.6417656,0,1.1898727,0.010375,1.6419983,0.0311956
	c0.4532852,0.0196552,0.8325729,0.0543451,1.1390228,0.1040668c0.3064156,0.0485935,0.548111,0.1110191,0.7261772,0.1861849
	c0.1780701,0.0751657,0.3122025,0.1861496,0.4035645,0.3330231c0.0925293,0.1468725,0.1514969,0.2948751,0.1769409,0.4417477
	c0.0254097,0.1468372,0.038147,0.3156605,0.038147,0.5064678c0,0.2081347-0.0127373,0.3977785-0.038147,0.5677652
	c-0.025444,0.1699877-0.0879059,0.3249063-0.1850204,0.4636984c-0.0971489,0.1375914-0.2405319,0.2567272-0.430172,0.3549719
	c-0.1884804,0.0983152-0.4463387,0.1815624-0.7736092,0.2509756c-0.3260689,0.0693779-0.7319641,0.1202297-1.2164803,0.1514606
	c-0.4833565,0.0323954-1.0696106,0.0474281-1.7576408,0.0474281c-0.7562447,0-1.3818474-0.0219851-1.8779259-0.0647907
	c-0.4949112-0.0427704-0.8892288-0.1260519-1.1817741-0.2462816c-0.2925644-0.1214294-0.497242-0.2902527-0.6140289-0.5076332
	c-0.1179543-0.2162504-0.1769218-0.4972219-0.1769218-0.8441486h-1.650116c0,0.526124,0.0936737,0.9702015,0.2798424,1.3344545
	c0.1861687,0.3630533,0.493763,0.6590929,0.9239197,0.8868837c0.4301567,0.2289553,0.9956284,0.3943195,1.697525,0.4984226
	c0.7019005,0.1040316,1.5691643,0.1560831,2.5994797,0.1560831c0.8256226,0,1.5495033-0.0242786,2.1704521-0.0740013
	c0.6221428-0.0485573,1.1563492-0.123723,1.6038857-0.2243319c0.4463348-0.101738,0.8175392-0.2347431,1.112381-0.3989429
	c0.2948723-0.1641998,0.5284538-0.360795,0.7007675-0.5885849c0.1722832-0.2289553,0.2925453-0.4914703,0.3607941-0.78864
	c0.0693817-0.2971687,0.1029053-0.6336851,0.1029053-1.0095129c0-0.3746281-0.0335236-0.7053566-0.1029053-0.9909868
	c-0.0682487-0.2867584-0.1873474-0.5342045-0.3561707-0.7458334c-0.1688232-0.2104282-0.3943176-0.4047298-0.6753273-0.5839272
	c-0.2809715-0.1792688-0.6359787-0.3122377-1.0649872-0.3989778c-0.430172-0.0867052-0.9389343-0.1468377-1.5263901-0.1815267
	c-0.5874214-0.0346894-1.2708282-0.0520163-2.0501862-0.0520163c-0.6418037,0-1.1887474-0.0011997-1.6408691-0.0046582
	c-0.453289-0.0023289-0.8325768-0.0196557-1.1390076-0.0520158c-0.3064308-0.0312309-0.5492744-0.0786242-0.7261963-0.1422501
	c-0.1780663-0.063591-0.3133659-0.1560836-0.4047127-0.277513C40.6553421,7.1477408,40.5963745,6.9939513,40.5709305,6.8054724
	 M64.1350555,11.1452465c0.2173843-0.681078,0.3260727-1.5368023,0.3260727-2.5671005
	c0-1.0141358-0.1086884-1.8524618-0.3260727-2.5173779c-0.218544-0.664916-0.5677643-1.1910048-1.0488243-1.5807366
	c-0.4810257-0.3896613-1.1054649-0.6625869-1.8732834-0.8209994c-0.1491661-0.0300663-0.3341866-0.0439348-0.4949303-0.0682137
	v1.3691087c0.0936928,0.0173268,0.2150879,0.0196557,0.300663,0.0416408
	c0.3237762,0.0832467,0.6001625,0.2058411,0.8302803,0.3688765c0.2289581,0.1630349,0.4139748,0.3839092,0.5538635,0.6637158
	c0.1399193,0.2798419,0.243988,0.6267686,0.309906,1.0407438c0.0659218,0.4139757,0.0983162,0.9146919,0.0983162,1.503242
	c0,0.5989962-0.0323944,1.1124163-0.0983162,1.5368023c-0.065918,0.4255505-0.1699867,0.7840157-0.309906,1.0753975
	c-0.1398888,0.2913818-0.3249054,0.5203371-0.5538635,0.6891947c-0.2301178,0.1688223-0.5065041,0.2983332-0.8302803,0.3896971
	c-0.3237762,0.0913277-0.7018967,0.1503305-1.1343651,0.1757393c-0.4325027,0.0254784-0.9239388,0.0381823-1.4743385,0.0381823
	c-0.6418037,0-1.1956978-0.0196915-1.6628571-0.060132c-0.4671555-0.0393124-0.8638039-0.113349-1.1898727-0.2220392
	c-0.3272362-0.1086893-0.5909157-0.2543631-0.7909355-0.4370899c-0.2012177-0.1827259-0.3573341-0.4197273-0.4683189-0.7111444
	c-0.1121826-0.2902517-0.1885147-0.639472-0.2278252-1.0442019c-0.0404778-0.4058943-0.0601349-0.8822966-0.0601349-1.4304056
	c0-0.5885501,0.0323982-1.0892663,0.0983162-1.503242c0.0658836-0.4139752,0.1688232-0.7609019,0.3098717-1.0407438
	c0.1399231-0.2798066,0.3249435-0.5006809,0.5538979-0.6637158c0.2289543-0.1630354,0.5053406-0.2856297,0.8291168-0.3688765
	c0.0867386-0.0219851,0.2081337-0.0243139,0.3017921-0.0416408V3.5908184
	c-0.1618729,0.0242789-0.345726,0.0381474-0.4948959,0.0682137c-0.7678185,0.1584125-1.3922577,0.4313381-1.8732796,0.8209994
	c-0.4822273,0.3897319-0.8314476,0.9158206-1.0488281,1.5807366s-0.3272324,1.503242-0.3272324,2.5173779
	c0,1.0302982,0.1098518,1.8860226,0.3272324,2.5671005c0.2173805,0.6811132,0.5666008,1.222271,1.0488281,1.6235418
	c0.4810219,0.4023657,1.1054611,0.6857014,1.8732796,0.8522301c0.7678185,0.1653643,1.7021332,0.2485762,2.8018456,0.2485762
	c1.1008415,0,2.033989-0.0832119,2.8029709-0.2485762c0.7678185-0.1665287,1.3922577-0.4498644,1.8732834-0.8522301
	C63.5672913,12.3675175,63.9165115,11.8263597,64.1350555,11.1452465 M77.9384308,13.6788225l0.0092468-5.5435534
	c0-0.5076332-0.0208206-0.977118-0.0601349-1.4072561c-0.0404739-0.4301734-0.1225967-0.81987-0.2451553-1.1690903
	c-0.1237183-0.3492203-0.2960358-0.6567993-0.5203705-0.9227729c-0.2231674-0.2659378-0.5192032-0.4879766-0.8892136-0.6672094
	c-0.3700409-0.1792331-0.81987-0.3145311-1.3494873-0.407059C74.3525696,3.469389,73.7212143,3.423125,72.9880829,3.423125
	c-0.2521057,0-0.5319443,0.0092456-0.838356,0.026608c-0.3064499,0.0173621-0.6232758,0.0497222-0.9493866,0.0994444
	c-0.3272324,0.0485578-0.6533356,0.1179359-0.9805756,0.2081347c-0.3260727,0.0890696-0.630188,0.2058411-0.9100342,0.350385
	c-0.2810059,0.1445436-0.5330734,0.3191538-0.7574081,0.5238299c-0.2231979,0.2046766-0.3954849,0.4486651-0.5157471,0.7319651
	V3.7006731h-1.650116v9.9781494h1.650116V7.5813723c0-0.4162693,0.0624619-0.7944264,0.1850204-1.1355305
	c0.1237259-0.3399744,0.348053-0.631391,0.6753235-0.8741798c0.3260727-0.2428589,0.7747345-0.4301729,1.3448334-0.5631423
	c0.5700607-0.1330042,1.3020248-0.1988888,2.1958923-0.1988888c0.8256226,0,1.4905396,0.0578036,1.9947128,0.1734104
	c0.5041733,0.1156774,0.8938751,0.3029914,1.1690521,0.5620131c0.2740555,0.2601504,0.4579468,0.6024542,0.5492783,1.0268397
	c0.0925293,0.424386,0.1376266,0.9458871,0.1376266,1.563375v5.5435534H77.9384308z M90.0072403,10.8607817
	c0,0.2729254-0.063591,0.5122557-0.1896439,0.7169313c-0.1260529,0.2058411-0.3388062,0.3758287-0.6359787,0.5134554
	c-0.2983322,0.1364279-0.6914902,0.2393303-1.1817932,0.30758c-0.490303,0.0682135-1.0985489,0.1017733-1.8270569,0.1017733
	c-0.9620819,0-1.73452-0.0208206-2.3161545-0.0636263s-1.0268402-0.123723-1.3367538-0.243988
	c-0.3087387-0.1191006-0.5145493-0.285594-0.6139908-0.4995518c-0.1006088-0.2139225-0.1503296-0.4914351-0.1503296-0.8325739
	c0-0.342268,0.0473938-0.6128645,0.1410522-0.8117533c0.0948181-0.2000542,0.2798386-0.3503847,0.5550613-0.4532881
	c0.2752151-0.1029024,0.6660385-0.1676931,1.1725464-0.1965599c0.5076294-0.0277719,1.1736755-0.0428057,1.9993362-0.0428057
	c0.8244553,0,1.5182724,0.0277729,2.0791245,0.0809536c0.5619736,0.0543451,1.0129318,0.1410503,1.3540726,0.2613153
	c0.3411026,0.1191359,0.5850906,0.275219,0.7307968,0.4660263C89.9332428,10.355443,90.0072403,10.5867271,90.0072403,10.8607817
	 M90.0072403,13.6788225h1.650116V8.9666786c0-1.0915604-0.0959854-1.9935479-0.2879257-2.7070217
	c-0.1919708-0.7122736-0.5041733-1.2800741-0.9378052-1.7021308c-0.4324646-0.4209275-0.9979401-0.7158027-1.6975098-0.8834608
	c-0.6984406-0.1665289-1.5529938-0.2509403-2.561348-0.2509403c-1.031456,0-1.8987198,0.0520513-2.6040802,0.1561186
	c-0.7042313,0.1041026-1.2731552,0.2705963-1.7056274,0.4983869c-0.4336319,0.2277908-0.7423706,0.5238304-0.9285583,0.8880839
	c-0.1861496,0.3630886-0.279808,0.8082948-0.279808,1.3332543h1.6500854c0-0.312202,0.0601273-0.5642715,0.1815567-0.7573729
	c0.1202698-0.1943016,0.3261108-0.3457618,0.6186523-0.4556165c0.2913818-0.1087255,0.6868668-0.1826916,1.1864166-0.2208743
	c0.4983902-0.036983,1.1251221-0.0554743,1.8813629-0.0554743c0.4880142,0,0.9204788,0.0127039,1.2986069,0.0381122
	c0.3781204,0.026608,0.708847,0.0856113,0.9921494,0.1781039c0.284462,0.0924926,0.5226669,0.2289548,0.7180939,0.4116464
	c0.1942673,0.1815619,0.3538437,0.4255505,0.4775696,0.7319651c0.1225586,0.3052855,0.2116241,0.6868653,0.2659683,1.1436467
	c0.0543518,0.4555812,0.0820847,1.0071845,0.0820847,1.6535735c-0.0751648-0.09828-0.1977234-0.2046766-0.3700409-0.3202839
	C89.46492,8.5307178,89.2116852,8.4232273,88.8763351,8.321454c-0.33535-0.1006098-0.766655-0.1850204-1.2939453-0.2509403
	c-0.5273209-0.0658846-1.1829605-0.0994449-1.9681396-0.0994449c-0.5503998,0-1.0684433,0.0080814-1.5552597,0.0254436
	c-0.4868469,0.0173626-0.9355087,0.0612621-1.3448639,0.13064c-0.4104767,0.0682487-0.7758942,0.170022-1.0962143,0.3029919
	c-0.3214493,0.1329689-0.5943375,0.3168249-0.8209991,0.553896c-0.2266617,0.2370367-0.398941,0.5296183-0.5157547,0.8788385
	c-0.1179352,0.3503494-0.1757355,0.7758999-0.1757355,1.2777443c0,0.4798956,0.1063614,0.8927069,0.3214493,1.2384338
	c0.2150879,0.3469257,0.5550613,0.6313906,1.0187607,0.8534298c0.4636917,0.2231674,1.0626907,0.387332,1.7969513,0.4937639
	c0.7331238,0.1075258,1.6177521,0.1607065,2.6550064,0.1607065c0.7793579,0,1.4084167-0.0450993,1.887146-0.1341343
	c0.4787292-0.0901985,0.8614807-0.2139215,1.14711-0.3723345c0.2867584-0.1595764,0.5157089-0.3423033,0.6880264-0.5504379
	c0.2405319-0.2775126,0.3700409-0.4509935,0.3873672-0.5191717V13.6788225z M96.0572662,0.375h-1.650116v13.3038225h1.650116V0.375z
	"/>
<path fill="#8CBF43" stroke="#8CBF43" stroke-width="0.75" d="M45.5918007,25.5904922
	c0.0658836-0.4139404,0.1688232-0.7620316,0.3098717-1.0430031c0.1399231-0.2798424,0.3249435-0.5018806,0.5550613-0.6649151
	c0.2289581-0.1630363,0.5064697-0.2856293,0.830246-0.3688774c0.3238144-0.0832462,0.703064-0.1364613,1.1355667-0.158411
	c0.4336319-0.0231495,0.9250641-0.0346889,1.476635-0.0346889c0.5504379,0,1.0418701,0.0115395,1.475502,0.0346889
	c0.4325027,0.0219498,0.8117905,0.0751648,1.1355667,0.158411c0.3237762,0.0832481,0.6012917,0.2058411,0.830246,0.3688774
	c0.2301178,0.1630344,0.4151382,0.3850727,0.5550613,0.6649151c0.1410484,0.2809715,0.243988,0.6290627,0.3098717,1.0430031
	c0.0659218,0.4151402,0.0994453,0.9170208,0.0994453,1.5067348c0,0.6012897-0.0335236,1.1147461-0.0994453,1.5402603
	c-0.0658836,0.4267159-0.1688232,0.785181-0.3098717,1.0777283c-0.1399231,0.2914162-0.3249435,0.5214996-0.5550613,0.6903229
	c-0.2289543,0.1688232-0.5064697,0.2995338-0.830246,0.3908615s-0.703064,0.1503315-1.1355667,0.1757393
	c-0.4336319,0.0266075-0.9250641,0.0393467-1.475502,0.0393467c-0.6429329,0-1.1979599-0.0208206-1.6651497-0.0601311
	c-0.4683189-0.0404778-0.864933-0.1144791-1.1921692-0.2232037c-0.3272705-0.1086903-0.5909157-0.254364-0.792099-0.4382191
	c-0.2000504-0.1827278-0.3573341-0.4197636-0.4683189-0.7123451c-0.1121826-0.2913818-0.1885147-0.6406021-0.2289925-1.0464611
	c-0.0393105-0.4070587-0.0600967-0.8846245-0.0600967-1.4338989C45.4923553,26.507513,45.5258827,26.0056324,45.5918007,25.5904922
	 M44.1671486,29.6701145c0.2185783,0.6822433,0.5677643,1.2245998,1.0499878,1.6269665
	c0.4821892,0.4024353,1.1077576,0.6868649,1.8767433,0.8534279c0.7678185,0.1664963,1.7032928,0.2497406,2.8053017,0.2497406
	c1.1008759,0,2.0363503-0.0832443,2.805336-0.2497406c0.7678185-0.166563,1.3933868-0.4509926,1.875576-0.8534279
	c0.4822235-0.4023666,0.8314095-0.9447231,1.0499878-1.6269665c0.2173805-0.6822414,0.3272362-1.5402584,0.3272362-2.5728874
	c0-1.0164299-0.1098557-1.8570843-0.3272362-2.5219994c-0.2185783-0.6660461-0.5677643-1.1945-1.0499878-1.5841961
	c-0.4821892-0.3908615-1.1077576-0.6649151-1.875576-0.8221645c-0.7689857-0.1584473-1.7044601-0.2370701-2.805336-0.2370701
	c-1.1020088,0-2.0374832,0.0786228-2.8053017,0.2370701c-0.7689857,0.1572495-1.3945541,0.431303-1.8767433,0.8221645
	c-0.4822235,0.3896961-0.8314095,0.9181499-1.0499878,1.5841961c-0.2173805,0.6649151-0.3260727,1.5055695-0.3260727,2.5219994
	C43.8410759,28.1298561,43.9497681,28.9878731,44.1671486,29.6701145 M41.361866,18.875555h-1.6524277v1.6663475h1.6524277
	V18.875555z M39.7094383,32.2094421h1.6524277V22.2093449h-1.6524277V32.2094421z M29.2329025,30.951355
	c-0.4671745-0.0404778-0.8649521-0.1121845-1.1922054-0.2150879c-0.326088-0.1029015-0.5920429-0.2463169-0.7955723-0.4290085
	c-0.2035122-0.1826916-0.3619251-0.4163036-0.4729443-0.699604c-0.1121655-0.2833004-0.1873322-0.6232758-0.2243328-1.0210533
	s-0.0555096-0.8660984-0.0555096-1.4037971c0-0.5434875,0.0185089-1.0164299,0.0555096-1.4199963
	c0.0370007-0.4035645,0.1121674-0.7481613,0.2243328-1.0349197c0.1110191-0.2856312,0.2694321-0.5203724,0.4729443-0.7031002
	c0.2035294-0.1838551,0.4694843-0.3260708,0.7955723-0.4301376c0.3272533-0.1029377,0.7250309-0.1734447,1.1922054-0.2139225
	c0.4671555-0.0404758,1.0222168-0.0601311,1.6651478-0.0601311c0.5504208,0,1.0418739,0.0115395,1.4720287,0.0346889
	c0.4301567,0.0219498,0.8082962,0.0786228,1.1355286,0.1664925c0.3272552,0.0890694,0.6036186,0.2162514,0.830265,0.3827457
	c0.2266426,0.1653633,0.4116631,0.3931904,0.5550423,0.6822777c0.1433983,0.2890873,0.2486305,0.646389,0.3145332,1.0730686
	c0.065918,0.4255505,0.0982971,0.9424286,0.0982971,1.5483761c0,0.5839291-0.0323792,1.0834789-0.0982971,1.4986191
	c-0.0659027,0.4151402-0.1711349,0.7620316-0.3145332,1.0430393c-0.1433792,0.2798405-0.3283997,0.5041733-0.5550423,0.6729965
	c-0.2266464,0.1688232-0.5030098,0.2960033-0.830265,0.3827438c-0.3272324,0.085577-0.7053719,0.1410866-1.1355286,0.1664944
	c-0.4301548,0.0266075-0.921608,0.0393467-1.4720287,0.0393467C30.2551193,31.0114861,29.700058,30.9906654,29.2329025,30.951355
	 M32.8603668,32.19561c0.5273056-0.1376266,0.9378052-0.2810421,1.2303696-0.4336319
	c0.2925453-0.1515312,0.5596657-0.3515491,0.8001785-0.6001949l0.4128304-0.5191727v1.5668316h1.6524239V18.875555h-1.6524239
	v4.271595c-0.0797882-0.1214294-0.2081528-0.253233-0.3827629-0.395483
	c-0.1746101-0.1410503-0.4301567-0.2728901-0.7654915-0.3943195c-0.33535-0.1214294-0.7678185-0.2231693-1.2951241-0.304121
	c-0.5284538-0.0809174-1.1817932-0.1214294-1.9623165-0.1214294c-1.1008587,0-2.036335,0.0798225-2.8053188,0.24053
	c-0.7689667,0.1607418-1.3945522,0.4394188-1.8755951,0.8360672c-0.4822063,0.3954487-0.8325729,0.931982-1.0499706,1.609602
	c-0.2185459,0.6764908-0.3272362,1.5321808-0.3272362,2.5648079c0,1.0152645,0.1086903,1.8594131,0.3272362,2.5300808
	c0.2173977,0.6707039,0.5677643,1.2049103,1.0499706,1.6015587c0.4810429,0.3966484,1.1066284,0.6776199,1.8755951,0.8406544
	c0.7689838,0.1630363,1.7044601,0.2451515,2.8053188,0.2451515C31.6785736,32.4002495,32.331913,32.3320389,32.8603668,32.19561
	 M15.1034403,30.9640942c-0.582798-0.0428066-1.0291519-0.1237602-1.3390427-0.2439899
	c-0.3087435-0.1191349-0.5145845-0.2867928-0.6151752-0.5007153c-0.0994625-0.2139568-0.1503315-0.4925995-0.1503315-0.8349037
	c0-0.342268,0.047411-0.6140289,0.1422319-0.8129177c0.0948219-0.2000179,0.2798424-0.3515129,0.5550442-0.4544525
	c0.275219-0.1029015,0.6672096-0.1676579,1.17486-0.1965599c0.5076323-0.0289001,1.1748428-0.0427685,2.0004826-0.0427685
	s1.5206032,0.0265713,2.0825806,0.0809517c0.5619965,0.0543461,1.0141182,0.1410503,1.355257,0.2613163
	c0.3411217,0.1202641,0.5851097,0.275219,0.7308006,0.4671555c0.1468563,0.1908073,0.2197094,0.4232216,0.2197094,0.6972752
	c0,0.2740555-0.0624428,0.5134563-0.1884785,0.7192612c-0.1271992,0.2058067-0.33881,0.3769588-0.6371613,0.5134201
	c-0.2983322,0.1375923-0.6926517,0.2404957-1.1829395,0.3087444c-0.4914532,0.0682487-1.1008415,0.1029034-1.8293495,0.1029034
	C16.4586983,31.0288143,15.685092,31.0068645,15.1034403,30.9640942 M21.2598572,32.2094421h1.6524277v-4.722517
	c0-1.0938892-0.0959682-1.9981709-0.2879238-2.7128086c-0.1919537-0.7146034-0.5053387-1.2824039-0.9378052-1.7055893
	c-0.4336319-0.4220924-1.0002499-0.7169323-1.6998386-0.8846264c-0.6995869-0.1688232-1.5552921-0.2521038-2.5647888-0.2521038
	c-1.0326271,0-1.9010363,0.0520515-2.6075764,0.1561184c-0.7053747,0.1041031-1.2742863,0.2705956-1.7079182,0.4995518
	c-0.4324846,0.2278252-0.7423754,0.5249596-0.9297066,0.8892117c-0.1861849,0.364254-0.2786779,0.8106251-0.2786779,1.3367481
	h1.6512623c0-0.3122005,0.0612793-0.5654354,0.1815443-0.7597008c0.120265-0.1931019,0.326088-0.3457623,0.6197987-0.4556179
	c0.2925634-0.1098537,0.6880302-0.1838551,1.1864176-0.2208729c0.4995508-0.038147,1.1274481-0.0566387,1.8848562-0.0566387
	c0.487978,0,0.9216099,0.0127392,1.2997494,0.0393105c0.3781204,0.025444,0.7099972,0.085577,0.9932976,0.1781044
	c0.2844639,0.0924568,0.5238304,0.2289562,0.7192421,0.4116116c0.1942673,0.1827259,0.3538437,0.4267139,0.4775848,0.7331638
	c0.123724,0.3075809,0.2116108,0.6891956,0.2671204,1.1459064c0.0543442,0.4579449,0.0809345,1.0106773,0.0809345,1.6582317
	c-0.0739994-0.0983162-0.1977406-0.2058067-0.3700218-0.3214836c-0.1722984-0.1156063-0.4255505-0.2242966-0.7608852-0.3249416
	c-0.3364983-0.101738-0.7678185-0.1849842-1.2951069-0.2520695c-0.5284538-0.0658836-1.1852703-0.0994434-1.9704342-0.0994434
	c-0.5515671,0-1.0707741,0.0080795-1.5576038,0.0254421c-0.487977,0.0173626-0.9366417,0.0612965-1.3471413,0.1306763
	c-0.4105167,0.0693779-0.7759171,0.1711159-1.0973825,0.304121c-0.3214655,0.1329689-0.59552,0.3179893-0.8221636,0.5550594
	c-0.2266445,0.2370377-0.3989429,0.5307484-0.5157318,0.8810978c-0.1179533,0.35042-0.1769218,0.7770996-0.1769218,1.2801094
	c0,0.4810238,0.1075439,0.8938351,0.3226128,1.2419262c0.215086,0.3468914,0.5550613,0.6313553,1.019906,0.8545589
	c0.4648619,0.2231674,1.0638399,0.3873329,1.7992811,0.4948921c0.7342939,0.1063614,1.6200485,0.1607094,2.6584644,0.1607094
	c0.7805214,0,1.409584-0.0450668,1.8894615-0.1352654c0.4787312-0.089035,0.8614941-0.2139206,1.1482697-0.3723335
	c0.2867775-0.1595764,0.5168781-0.3434334,0.6880302-0.5516033c0.2416782-0.2775135,0.3700237-0.4509583,0.3873672-0.5203362
	V32.2094421z M10.2884111,25.4644394c0-0.5723877-0.0531979-1.0788555-0.1595774-1.5194035
	c-0.1063957-0.4394188-0.3099079-0.8082962-0.6105528-1.1066647c-0.3018093-0.2971687-0.7215719-0.5238304-1.2604361-0.6764202
	c-0.54001-0.1538239-1.2395973-0.230154-2.099926-0.230154c-0.7516212,0-1.3783717,0.063591-1.8802347,0.1908073
	c-0.5018454,0.1272163-0.9111981,0.2856293-1.226876,0.4729786c-0.3145311,0.1884441-0.5504208,0.3908253-0.7053747,0.608242
	c-0.1549542,0.2162151-0.261333,0.4151039-0.3180072,0.5943375v-1.5888176H0.375v10.0000973h1.6524262V26.019537
	c0-0.4047661,0.047411-0.7724781,0.1422324-1.1020069c0.0948217-0.3295994,0.2740548-0.6128998,0.537699-0.8511009
	c0.2636621-0.2370358,0.6279154-0.420927,1.0927601-0.5504379c0.4648445-0.13064,1.0673168-0.1953945,1.8073804-0.1953945
	c0.7574086,0,1.3552399,0.0335236,1.7934942,0.0994434c0.4394188,0.0670853,0.7701302,0.1826916,0.994462,0.3469276
	c0.2231855,0.165329,0.3654003,0.3850384,0.4255333,0.6602573c0.060132,0.2751827,0.0901985,0.620945,0.0901985,1.0372143
	H10.2884111z"/>
<path fill="none" stroke="#FFFFFF" stroke-width="0.75" d="M10.8272743,8.663722
	c0,0.5365696-0.0196552,1.003726-0.0566559,1.4003391s-0.1110201,0.7365875-0.2231855,1.0187588
	c-0.1121664,0.2833004-0.2694139,0.5157137-0.4729443,0.6984406c-0.2035112,0.1826916-0.4683199,0.3249416-0.7944088,0.427844
	c-0.3272524,0.1029034-0.7238836,0.1746101-1.19104,0.2139225c-0.4671736,0.0404406-1.0210524,0.060132-1.6628361,0.060132
	c-0.5504208,0-1.040709-0.0127039-1.4697175-0.0381823C4.5263305,12.4195681,4.148191,12.3628941,3.8221028,12.27386
	c-0.3272529-0.0890341-0.6036189-0.2174158-0.8302627-0.3850737c-0.2266438-0.1688232-0.4104996-0.3943195-0.5538788-0.6776199
	c-0.1433971-0.282136-0.2486289-0.6348143-0.3133843-1.0569067C2.0575101,9.731039,2.0251327,9.2256994,2.0251327,8.638279
	c0-0.582799,0.0323775-1.082315,0.0994444-1.499784c0.0647554-0.4162693,0.1699872-0.766654,0.3133843-1.04879
	c0.1433792-0.2821708,0.327235-0.507668,0.5538788-0.6764908c0.2266438-0.1688223,0.5030098-0.2971687,0.8302627-0.3850737
	C4.148191,4.9391418,4.5263305,4.8801384,4.9564862,4.8524013C5.3854947,4.8234644,5.875783,4.8096309,6.4262037,4.8096309
	c0.6417837,0,1.1956625,0.0196209,1.6628361,0.0589328c0.4671564,0.0405116,0.8637877,0.1144776,1.19104,0.2231679
	c0.3260889,0.1087255,0.5908976,0.2544336,0.7944088,0.4371252c0.2035303,0.1826911,0.3607779,0.4163046,0.4729443,0.7018986
	c0.1121655,0.2856293,0.1861849,0.6278977,0.2231855,1.0280046S10.8272743,8.1271524,10.8272743,8.663722z M12.1501369,11.1880522
	c0.2173977-0.6695385,0.3272524-1.5113583,0.3272524-2.5243301c0-1.014101-0.1098547-1.8570852-0.3272524-2.5301175
	c-0.2173805-0.6729617-0.5666008-1.209496-1.0488081-1.6107674c-0.4810419-0.4001074-1.105464-0.684572-1.8732824-0.8499365
	C8.460228,3.506407,7.525898,3.423125,6.4262037,3.423125c-0.7851634,0-1.4419627,0.0405118-1.9681044,0.1214294
	C3.930793,3.6255076,3.4994905,3.7261167,3.1641388,3.8475108C2.828805,3.9689405,2.5732417,4.1007447,2.3986316,4.2418303
	C2.2240214,4.3840451,2.0991337,4.5112619,2.0251327,4.6269045V3.7006731h-1.650115v13.3037863h1.650115v-4.5213003
	c0.0740011,0.1422148,0.1988888,0.2925463,0.3734989,0.4532881c0.1746101,0.1595764,0.4301734,0.3087435,0.7655072,0.4475002
	c0.3353517,0.1387558,0.7666543,0.2543983,1.2939606,0.3468904c0.5261416,0.0925283,1.182941,0.1387568,1.9681044,0.1387568
	c1.0996943,0,2.0340242-0.0820818,2.8018427-0.2451172s1.3922405-0.4417486,1.8732824-0.8383617
	C11.5835361,12.3906317,11.9327564,11.8575554,12.1501369,11.1880522z M15.7776194,7.9965124
	c0-0.5076327,0.0323772-0.9424286,0.0994444-1.3032236c0.0647554-0.3607597,0.1688232-0.6406021,0.3087444-0.8406553
	c0.1399212-0.1988893,0.3249416-0.3723345,0.553896-0.5192075c0.2301025-0.1468377,0.506485-0.2601862,0.8302631-0.3376455
	c0.3237762-0.0786591,0.7018986-0.128346,1.1343651-0.1514959c0.4324856-0.0231142,0.9239368-0.0346537,1.4743576-0.0346537
	c0.6868668,0,1.2742882,0.0462289,1.7622814,0.1375566c0.4868126,0.0936923,0.8846073,0.2636795,1.1944981,0.5111265
	c0.3087444,0.2486463,0.5354061,0.5654712,0.6787853,0.9493451c0.1433792,0.383945,0.215086,0.9135623,0.215086,1.5888534
	H15.7776194z M16.0007877,10.9336185c-0.1491671-0.4752378-0.2231684-1.0846443-0.2231684-1.8281841h9.764226l0.1376114-0.553896
	c0-0.5145493-0.0277557-1.0025616-0.0820999-1.4639301c-0.0543633-0.4625335-0.1538086-0.864934-0.300663-1.2083669
	c-0.1456909-0.3434329-0.3469086-0.6718326-0.6013069-0.9829054c-0.2555466-0.312202-0.5874214-0.5781755-0.9967747-0.7978849
	c-0.4104996-0.218545-0.9030991-0.3862383-1.4789639-0.5018454C21.6437855,3.4809637,20.9638538,3.423125,20.17869,3.423125
	c-1.1008415,0-2.0351887,0.0844114-2.8018417,0.2509403c-0.7689667,0.1676581-1.3934059,0.4625332-1.8744478,0.8834608
	c-0.4810429,0.4220567-0.8302631,0.9898572-1.0488081,1.7021308c-0.2173977,0.7134738-0.326088,1.6154613-0.326088,2.7070217
	c0,0.9528389,0.1086903,1.7437716,0.326088,2.3739986c0.218545,0.6290617,0.5677652,1.1309071,1.0488081,1.5067358
	c0.4810419,0.3758278,1.1054811,0.6394367,1.8744478,0.7920971c0.7666531,0.1537895,1.7010002,0.2300844,2.8018417,0.2300844
	c1.0314636,0,1.897562-0.0531454,2.5994778-0.1607065c0.7018986-0.1063957,1.2685184-0.2763834,1.6975269-0.5111256
	c0.4301548-0.2335434,0.737751-0.5399933,0.9239197-0.9181499c0.1861668-0.378087,0.2798424-0.8348684,0.2798424-1.3725672
	h-1.650116c0,0.3283997-0.0589848,0.5955029-0.1769218,0.8001785c-0.1167889,0.2058411-0.3214645,0.3654184-0.6140289,0.48106
	c-0.2925625,0.1144781-0.6868649,0.1931019-1.1817932,0.2335787c-0.4960766,0.041605-1.1216621,0.0612965-1.8779068,0.0612965
	c-0.8256397,0-1.5182915-0.0289364-2.0802708-0.0878696c-0.5619946-0.0590029-1.0141354-0.1988888-1.3587151-0.4185982
	C16.3962708,11.7569818,16.1499538,11.4100552,16.0007877,10.9336185z M36.4069138,6.9488516h1.374897
	c0-0.5723877-0.0531807-1.0765624-0.1595764-1.5159459c-0.105217-0.4382896-0.3087463-0.8071661-0.6093903-1.1043348
	c-0.3018074-0.297204-0.7215729-0.522701-1.2592697-0.6752908c-0.5388641-0.1538248-1.2384529-0.230155-2.0976181-0.230155
	c-0.750473,0-1.3772049,0.0635908-1.8779221,0.1908078c-0.5018444,0.1272168-0.9100323,0.2844648-1.2245636,0.4717791
	c-0.3156967,0.1885138-0.5504208,0.3897319-0.7053757,0.6071124c-0.154953,0.2162509-0.2613316,0.41394-0.3180065,0.5932083
	V3.7006731h-1.6500969v9.9781494h1.6500969v-6.176074c0-0.4035654,0.047411-0.7701478,0.1422329-1.0996766
	c0.0936737-0.3295999,0.2729073-0.6117001,0.5365524-0.848772c0.2636433-0.2370715,0.6278973-0.4197631,1.0915947-0.5504379
	c0.4648628-0.1295109,1.0661507-0.194231,1.805069-0.194231c0.7562447,0,1.3540764,0.0323601,1.792347,0.0994444
	c0.4382553,0.0658846,0.7689667,0.1815267,0.9921341,0.3457265c0.2243309,0.1653647,0.3654175,0.3850389,0.4266968,0.6591287
	C36.3768463,6.1879849,36.4069138,6.5325823,36.4069138,6.9488516z M40.5709305,6.8054724
	C40.5454865,6.6181231,40.53162,6.4261861,40.53162,6.2295909c0-0.334187,0.0751648-0.5977964,0.2243309-0.7886391
	c0.1491661-0.1896434,0.3954659-0.3318582,0.7388992-0.4243507c0.3434525-0.0913634,0.7967377-0.1491666,1.3575706-0.1723166
	c0.5619774-0.0231142,1.2557945-0.0346537,2.0802536-0.0346537c0.756279,0,1.3830109,0.0207853,1.8779373,0.0647202
	c0.4960594,0.0427704,0.8903809,0.1214294,1.181797,0.2336135c0.2925453,0.1121483,0.4972229,0.2671022,0.6151581,0.4636974
	c0.116806,0.1965599,0.1757736,0.4497943,0.1757736,0.7620316h1.650116c0-0.5018806-0.0832481-0.9355121-0.2486115-1.2997656
	c-0.1665306-0.3630886-0.4567833-0.664916-0.8730507-0.9042459c-0.4151421-0.2393656-0.9771194-0.4174693-1.684803-0.5330763
	c-0.7076874-0.1156421-1.6050186-0.1734807-2.6943169-0.1734807c-1.099678,0-2.034008,0.0497575-2.8018265,0.1480374
	s-1.3922424,0.2578568-1.8732834,0.4798954c-0.4822083,0.2231679-0.8314095,0.5110912-1.0488091,0.8660636
	c-0.2185593,0.3550076-0.3272514,0.7932973-0.3272514,1.3124695c0,0.3816156,0.0346909,0.7354584,0.1029205,1.0615644
	c0.0693779,0.3260708,0.1861687,0.6001253,0.3526802,0.8221641c0.1665115,0.2231674,0.3908424,0.4000711,0.6753082,0.5330753
	c0.2833176,0.1329699,0.6383057,0.2358723,1.0650024,0.30758c0.4267006,0.0717068,0.9354973,0.120265,1.5263748,0.1433792
	c0.5897522,0.0219851,1.2743034,0.0335598,2.0536995,0.0335598c0.6417656,0,1.1898727,0.010375,1.6419983,0.0311956
	c0.4532852,0.0196552,0.8325729,0.0543451,1.1390228,0.1040668c0.3064156,0.0485935,0.548111,0.1110191,0.7261772,0.1861849
	c0.1780701,0.0751657,0.3122025,0.1861496,0.4035645,0.3330231c0.0925293,0.1468725,0.1514969,0.2948751,0.1769409,0.4417477
	c0.0254097,0.1468372,0.038147,0.3156605,0.038147,0.5064678c0,0.2081347-0.0127373,0.3977785-0.038147,0.5677652
	c-0.025444,0.1699877-0.0879059,0.3249063-0.1850204,0.4636984c-0.0971489,0.1375914-0.2405319,0.2567272-0.430172,0.3549719
	c-0.1884804,0.0983152-0.4463387,0.1815624-0.7736092,0.2509756c-0.3260689,0.0693779-0.7319641,0.1202297-1.2164803,0.1514606
	c-0.4833565,0.0323954-1.0696106,0.0474281-1.7576408,0.0474281c-0.7562447,0-1.3818474-0.0219851-1.8779259-0.0647907
	c-0.4949112-0.0427704-0.8892288-0.1260519-1.1817741-0.2462816c-0.2925644-0.1214294-0.497242-0.2902527-0.6140289-0.5076332
	c-0.1179543-0.2162504-0.1769218-0.4972219-0.1769218-0.8441486h-1.650116c0,0.526124,0.0936737,0.9702015,0.2798424,1.3344545
	c0.1861687,0.3630533,0.493763,0.6590929,0.9239197,0.8868837c0.4301567,0.2289553,0.9956284,0.3943195,1.697525,0.4984226
	c0.7019005,0.1040316,1.5691643,0.1560831,2.5994797,0.1560831c0.8256226,0,1.5495033-0.0242786,2.1704521-0.0740013
	c0.6221428-0.0485573,1.1563492-0.123723,1.6038857-0.2243319c0.4463348-0.101738,0.8175392-0.2347431,1.112381-0.3989429
	c0.2948723-0.1641998,0.5284538-0.360795,0.7007675-0.5885849c0.1722832-0.2289553,0.2925453-0.4914703,0.3607941-0.78864
	c0.0693817-0.2971687,0.1029053-0.6336851,0.1029053-1.0095129c0-0.3746281-0.0335236-0.7053566-0.1029053-0.9909868
	c-0.0682487-0.2867584-0.1873474-0.5342045-0.3561707-0.7458334c-0.1688232-0.2104282-0.3943176-0.4047298-0.6753273-0.5839272
	c-0.2809715-0.1792688-0.6359787-0.3122377-1.0649872-0.3989778c-0.430172-0.0867052-0.9389343-0.1468377-1.5263901-0.1815267
	c-0.5874214-0.0346894-1.2708282-0.0520163-2.0501862-0.0520163c-0.6418037,0-1.1887474-0.0011997-1.6408691-0.0046582
	c-0.453289-0.0023289-0.8325768-0.0196557-1.1390076-0.0520158c-0.3064308-0.0312309-0.5492744-0.0786242-0.7261963-0.1422501
	c-0.1780663-0.063591-0.3133659-0.1560836-0.4047127-0.277513C40.6553421,7.1477408,40.5963745,6.9939513,40.5709305,6.8054724z
	 M64.1350555,11.1452465c0.2173843-0.681078,0.3260727-1.5368023,0.3260727-2.5671005
	c0-1.0141358-0.1086884-1.8524618-0.3260727-2.5173779c-0.218544-0.664916-0.5677643-1.1910048-1.0488243-1.5807366
	c-0.4810257-0.3896613-1.1054649-0.6625869-1.8732834-0.8209994c-0.1491661-0.0300663-0.3341866-0.0439348-0.4949303-0.0682137
	v1.3691087c0.0936928,0.0173268,0.2150879,0.0196557,0.300663,0.0416408
	c0.3237762,0.0832467,0.6001625,0.2058411,0.8302803,0.3688765c0.2289581,0.1630349,0.4139748,0.3839092,0.5538635,0.6637158
	c0.1399193,0.2798419,0.243988,0.6267686,0.309906,1.0407438c0.0659218,0.4139757,0.0983162,0.9146919,0.0983162,1.503242
	c0,0.5989962-0.0323944,1.1124163-0.0983162,1.5368023c-0.065918,0.4255505-0.1699867,0.7840157-0.309906,1.0753975
	c-0.1398888,0.2913818-0.3249054,0.5203371-0.5538635,0.6891947c-0.2301178,0.1688223-0.5065041,0.2983332-0.8302803,0.3896971
	c-0.3237762,0.0913277-0.7018967,0.1503305-1.1343651,0.1757393c-0.4325027,0.0254784-0.9239388,0.0381823-1.4743385,0.0381823
	c-0.6418037,0-1.1956978-0.0196915-1.6628571-0.060132c-0.4671555-0.0393124-0.8638039-0.113349-1.1898727-0.2220392
	c-0.3272362-0.1086893-0.5909157-0.2543631-0.7909355-0.4370899c-0.2012177-0.1827259-0.3573341-0.4197273-0.4683189-0.7111444
	c-0.1121826-0.2902517-0.1885147-0.639472-0.2278252-1.0442019c-0.0404778-0.4058943-0.0601349-0.8822966-0.0601349-1.4304056
	c0-0.5885501,0.0323982-1.0892663,0.0983162-1.503242c0.0658836-0.4139752,0.1688232-0.7609019,0.3098717-1.0407438
	c0.1399231-0.2798066,0.3249435-0.5006809,0.5538979-0.6637158c0.2289543-0.1630354,0.5053406-0.2856297,0.8291168-0.3688765
	c0.0867386-0.0219851,0.2081337-0.0243139,0.3017921-0.0416408V3.5908184
	c-0.1618729,0.0242789-0.345726,0.0381474-0.4948959,0.0682137c-0.7678185,0.1584125-1.3922577,0.4313381-1.8732796,0.8209994
	c-0.4822273,0.3897319-0.8314476,0.9158206-1.0488281,1.5807366s-0.3272324,1.503242-0.3272324,2.5173779
	c0,1.0302982,0.1098518,1.8860226,0.3272324,2.5671005c0.2173805,0.6811132,0.5666008,1.222271,1.0488281,1.6235418
	c0.4810219,0.4023657,1.1054611,0.6857014,1.8732796,0.8522301c0.7678185,0.1653643,1.7021332,0.2485762,2.8018456,0.2485762
	c1.1008415,0,2.033989-0.0832119,2.8029709-0.2485762c0.7678185-0.1665287,1.3922577-0.4498644,1.8732834-0.8522301
	C63.5672913,12.3675175,63.9165115,11.8263597,64.1350555,11.1452465z M77.9384308,13.6788225l0.0092468-5.5435534
	c0-0.5076332-0.0208206-0.977118-0.0601349-1.4072561c-0.0404739-0.4301734-0.1225967-0.81987-0.2451553-1.1690903
	c-0.1237183-0.3492203-0.2960358-0.6567993-0.5203705-0.9227729c-0.2231674-0.2659378-0.5192032-0.4879766-0.8892136-0.6672094
	c-0.3700409-0.1792331-0.81987-0.3145311-1.3494873-0.407059C74.3525696,3.469389,73.7212143,3.423125,72.9880829,3.423125
	c-0.2521057,0-0.5319443,0.0092456-0.838356,0.026608c-0.3064499,0.0173621-0.6232758,0.0497222-0.9493866,0.0994444
	c-0.3272324,0.0485578-0.6533356,0.1179359-0.9805756,0.2081347c-0.3260727,0.0890696-0.630188,0.2058411-0.9100342,0.350385
	c-0.2810059,0.1445436-0.5330734,0.3191538-0.7574081,0.5238299c-0.2231979,0.2046766-0.3954849,0.4486651-0.5157471,0.7319651
	V3.7006731h-1.650116v9.9781494h1.650116V7.5813723c0-0.4162693,0.0624619-0.7944264,0.1850204-1.1355305
	c0.1237259-0.3399744,0.348053-0.631391,0.6753235-0.8741798c0.3260727-0.2428589,0.7747345-0.4301729,1.3448334-0.5631423
	c0.5700607-0.1330042,1.3020248-0.1988888,2.1958923-0.1988888c0.8256226,0,1.4905396,0.0578036,1.9947128,0.1734104
	c0.5041733,0.1156774,0.8938751,0.3029914,1.1690521,0.5620131c0.2740555,0.2601504,0.4579468,0.6024542,0.5492783,1.0268397
	c0.0925293,0.424386,0.1376266,0.9458871,0.1376266,1.563375v5.5435534H77.9384308z M90.0072403,10.8607817
	c0,0.2729254-0.063591,0.5122557-0.1896439,0.7169313c-0.1260529,0.2058411-0.3388062,0.3758287-0.6359787,0.5134554
	c-0.2983322,0.1364279-0.6914902,0.2393303-1.1817932,0.30758c-0.490303,0.0682135-1.0985489,0.1017733-1.8270569,0.1017733
	c-0.9620819,0-1.73452-0.0208206-2.3161545-0.0636263s-1.0268402-0.123723-1.3367538-0.243988
	c-0.3087387-0.1191006-0.5145493-0.285594-0.6139908-0.4995518c-0.1006088-0.2139225-0.1503296-0.4914351-0.1503296-0.8325739
	c0-0.342268,0.0473938-0.6128645,0.1410522-0.8117533c0.0948181-0.2000542,0.2798386-0.3503847,0.5550613-0.4532881
	c0.2752151-0.1029024,0.6660385-0.1676931,1.1725464-0.1965599c0.5076294-0.0277719,1.1736755-0.0428057,1.9993362-0.0428057
	c0.8244553,0,1.5182724,0.0277729,2.0791245,0.0809536c0.5619736,0.0543451,1.0129318,0.1410503,1.3540726,0.2613153
	c0.3411026,0.1191359,0.5850906,0.275219,0.7307968,0.4660263C89.9332428,10.355443,90.0072403,10.5867271,90.0072403,10.8607817z
	 M90.0072403,13.6788225h1.650116V8.9666786c0-1.0915604-0.0959854-1.9935479-0.2879257-2.7070217
	c-0.1919708-0.7122736-0.5041733-1.2800741-0.9378052-1.7021308c-0.4324646-0.4209275-0.9979401-0.7158027-1.6975098-0.8834608
	c-0.6984406-0.1665289-1.5529938-0.2509403-2.561348-0.2509403c-1.031456,0-1.8987198,0.0520513-2.6040802,0.1561186
	c-0.7042313,0.1041026-1.2731552,0.2705963-1.7056274,0.4983869c-0.4336319,0.2277908-0.7423706,0.5238304-0.9285583,0.8880839
	c-0.1861496,0.3630886-0.279808,0.8082948-0.279808,1.3332543h1.6500854c0-0.312202,0.0601273-0.5642715,0.1815567-0.7573729
	c0.1202698-0.1943016,0.3261108-0.3457618,0.6186523-0.4556165c0.2913818-0.1087255,0.6868668-0.1826916,1.1864166-0.2208743
	c0.4983902-0.036983,1.1251221-0.0554743,1.8813629-0.0554743c0.4880142,0,0.9204788,0.0127039,1.2986069,0.0381122
	c0.3781204,0.026608,0.708847,0.0856113,0.9921494,0.1781039c0.284462,0.0924926,0.5226669,0.2289548,0.7180939,0.4116464
	c0.1942673,0.1815619,0.3538437,0.4255505,0.4775696,0.7319651c0.1225586,0.3052855,0.2116241,0.6868653,0.2659683,1.1436467
	c0.0543518,0.4555812,0.0820847,1.0071845,0.0820847,1.6535735c-0.0751648-0.09828-0.1977234-0.2046766-0.3700409-0.3202839
	C89.46492,8.5307178,89.2116852,8.4232273,88.8763351,8.321454c-0.33535-0.1006098-0.766655-0.1850204-1.2939453-0.2509403
	c-0.5273209-0.0658846-1.1829605-0.0994449-1.9681396-0.0994449c-0.5503998,0-1.0684433,0.0080814-1.5552597,0.0254436
	c-0.4868469,0.0173626-0.9355087,0.0612621-1.3448639,0.13064c-0.4104767,0.0682487-0.7758942,0.170022-1.0962143,0.3029919
	c-0.3214493,0.1329689-0.5943375,0.3168249-0.8209991,0.553896c-0.2266617,0.2370367-0.398941,0.5296183-0.5157547,0.8788385
	c-0.1179352,0.3503494-0.1757355,0.7758999-0.1757355,1.2777443c0,0.4798956,0.1063614,0.8927069,0.3214493,1.2384338
	c0.2150879,0.3469257,0.5550613,0.6313906,1.0187607,0.8534298c0.4636917,0.2231674,1.0626907,0.387332,1.7969513,0.4937639
	c0.7331238,0.1075258,1.6177521,0.1607065,2.6550064,0.1607065c0.7793579,0,1.4084167-0.0450993,1.887146-0.1341343
	c0.4787292-0.0901985,0.8614807-0.2139215,1.14711-0.3723345c0.2867584-0.1595764,0.5157089-0.3423033,0.6880264-0.5504379
	c0.2405319-0.2775126,0.3700409-0.4509935,0.3873672-0.5191717V13.6788225z M96.0572662,0.375h-1.650116v13.3038225h1.650116V0.375z
	"/>
<rect x="57.5600395" y="2.182363" fill="#8CBF43" width="1.6477858" height="7.1369939"/>
<path fill="#FFFFFF" d="M66.9485474,26.5444965c0.1525879-0.4116821,0.5041351-0.7458706,0.9632492-0.7458706
	c0.4751968,0,0.8082581,0.3156967,0.9609146,0.7458706l1.7622681,4.8936691
	c0.0554733,0.1434155,0.0728378,0.2694321,0.0728378,0.3330593c0,0.3503494-0.2878952,0.5932083-0.6209488,0.5932083
	c-0.3769608,0-0.5666046-0.1977615-0.6556702-0.4671917l-0.2705994-0.8452778h-2.5000153l-0.2693939,0.836031
	c-0.0914001,0.278677-0.2798462,0.4764385-0.6487503,0.4764385c-0.3595963,0-0.664917-0.2694664-0.664917-0.6290627
	c0-0.1434155,0.0450974-0.2521057,0.0624619-0.297205L66.9485474,26.5444965z M67.0467911,29.8100357h1.7091141
	l-0.8360672-2.6087399L67.0467911,29.8100357z M78.5363312,29.000576h0.9169464
	c0.5666046,0,0.9262695-0.4128113,0.9262695-0.9528389c0-0.5399914-0.3596649-0.9528027-0.9262695-0.9528027h-0.9169464V29.000576z
	 M77.1880112,26.609251c0-0.4232216,0.2509003-0.7018986,0.7007675-0.7018986h1.592308
	c1.3228455,0,2.3022614,0.8637695,2.3022614,2.1485023c0,1.3135986-1.0163956,2.1323032-2.249115,2.1323032h-0.9979019v1.4743404
	c0,0.4498291-0.2879562,0.7019348-0.6741638,0.7019348c-0.3862,0-0.6741562-0.2521057-0.6741562-0.7019348V26.609251z
	 M70.9275208,26.5549068c0-0.449831,0.2879639-0.7007351,0.6741638-0.7007351s0.6741638,0.2509041,0.6741638,0.7007351v3.1383228
	c0,0.8279514,0.5307465,1.4847851,1.3864365,1.4847851c0.8175735,0,1.3749313-0.6938515,1.3749313-1.4847851v-3.1383228
	c0-0.449831,0.2878876-0.7007351,0.6741562-0.7007351c0.3862076,0,0.675293,0.2509041,0.675293,0.7007351v3.211195
	c0,1.5101585-1.24189,2.6514778-2.7243805,2.6514778c-1.5021133,0-2.7347641-1.1227932-2.7347641-2.6514778V26.5549068z
	 M94.9460831,26.3571815c0.1653595-0.3827457,0.5493088-0.4984226,0.9239349-0.3376446
	c0.3642578,0.1572475,0.5504379,0.5295811,0.3896637,0.9042454l-1.3020248,3.0689449
	c-0.1607056,0.3734989-0.5596848,0.4937649-0.9250641,0.3376465c-0.3735046-0.161871-0.5539017-0.5203381-0.3897324-0.9042473
	L94.9460831,26.3571815z M92.7906265,31.2473946c0.1653671-0.3850746,0.6117706-0.5620136,0.9967728-0.3966503
	c0.3839493,0.1653652,0.5631485,0.6128654,0.3977814,0.9967747c-0.1641617,0.3862038-0.6139603,0.5643082-0.9990311,0.3977776
	C92.8022003,32.0799332,92.6241379,31.6324329,92.7906265,31.2473946 M91.014534,29.1081028
	c0-1.0869732-0.5666733-2.0675144-1.6917572-2.0675144c-1.1239548,0-1.6906281,0.9805412-1.6906281,2.0675144
	c0,1.0974178,0.5493088,2.069912,1.6906281,2.069912C90.4652252,31.1780148,91.014534,30.2055206,91.014534,29.1081028
	 M86.2295532,29.1081028c0-1.8697891,1.2592545-3.3094769,3.0932236-3.3094769c1.8084869,0,3.0932236,1.4847507,3.0932236,3.3094769
	c0,1.861742-1.2476807,3.3094769-3.0932236,3.3094769C87.4968491,32.4175797,86.2295532,30.9698448,86.2295532,29.1081028
	 M82.272522,26.6901684c0-0.4497929,0.2242966-0.7828159,0.7006989-0.7828159h2.2306213
	c0.4312973,0,0.6394348,0.3052845,0.6394348,0.620945c0,0.304121-0.2173767,0.6209812-0.6394348,0.6209812h-1.581871v1.3112698
	h1.473175c0.4417496,0,0.6567993,0.3064499,0.6567993,0.6209812c0,0.3064156-0.2243652,0.6209812-0.6567993,0.6209812h-1.473175
	v1.3679447h1.6616211c0.4325027,0,0.6395111,0.3041191,0.6395111,0.6198158c0,0.3052502-0.215126,0.6197796-0.6395111,0.6197796
	H82.963974c-0.3954468,0-0.691452-0.2694321-0.691452-0.6741257V26.6901684z"/>
<g>
	<path fill="#FFFFFF" d="M58.4161148,19.4276867h0.7363777v2.3125877h0.0175667
		c0.2420464-0.4938469,0.8139687-0.7105141,1.4288368-0.7105141c1.3771095,0,2.0617599,1.0916348,2.0617599,2.3560181
		c0,1.2648716-0.6758652,2.3301544-2.0441895,2.3301544c-0.4592018,0-1.1175003-0.1732349-1.4464073-0.7017288h-0.0175667v0.5977879
		h-0.7363777V19.4276867z M60.494957,21.6792755c-0.9872055,0-1.3683281,0.8491039-1.3683281,1.6894226
		c0,0.8832645,0.398201,1.6977196,1.4117584,1.6977196c1.0047722,0,1.3424606-0.857399,1.3424606-1.7323666
		C61.8808479,22.4937325,61.4480019,21.6792755,60.494957,21.6792755z"/>
	<path fill="#FFFFFF" d="M65.2826309,26.2097797c-0.3376923,0.8744793-0.6407318,1.1950893-1.2990303,1.1950893
		c-0.1732368,0-0.3464737-0.0170803-0.5114136-0.0775909v-0.6758671c0.138588,0.0434322,0.2859612,0.1039429,0.4333344,0.1039429
		c0.3030434,0,0.467495-0.1473732,0.6060829-0.4069843l0.3035355-0.7622414l-1.7758026-4.4524269h0.8315392l1.3078117,3.6638336
		h0.0175705l1.2556-3.6638336h0.779808L65.2826309,26.2097797z"/>
</g>
<g>
	<path fill="#FFFFFF" d="M98.893486,24.789444c0.9491653,0,1.7454529,0.7491074,1.7454529,1.731245
		c0,1.0003242-0.7962875,1.7494316-1.7454529,1.7494316c-0.9537201,0-1.7545471-0.7491074-1.7545471-1.7494316
		C97.1389389,25.5385513,97.9397659,24.789444,98.893486,24.789444z M98.893486,28.0143547
		c0.8053741,0,1.4288712-0.6422539,1.4288712-1.4936657c0-0.8332253-0.623497-1.4754791-1.4288712-1.4754791
		c-0.8144684,0-1.437973,0.6422539-1.437973,1.4754791C97.455513,27.3721008,98.0790176,28.0143547,98.893486,28.0143547z
		 M98.2142868,25.5107021h0.7866211c0.4836731,0,0.7115936,0.1909695,0.7115936,0.5814381
		c0,0.367733-0.2324677,0.5211926-0.5348358,0.5541573l0.5814362,0.8980179H99.41922l-0.5535889-0.8747158h-0.3347626v0.8747158
		h-0.3165817V25.5107021z M98.5308685,26.4132671h0.3302155c0.279068,0,0.5348358-0.0136414,0.5348358-0.3347683
		c0-0.2699738-0.23246-0.3120327-0.4467392-0.3120327h-0.4183121V26.4132671z"/>
</g>
</svg>
